HIERARCHY
ROOT Hips
{
	OFFSET -35.298439 92.216103 -74.654198
	CHANNELS 6 Xposition Yposition Zposition Zrotation Yrotation Xrotation 
	JOINT LeftUpLeg
	{
		OFFSET 0.103462 1.857831 10.548502
		CHANNELS 3 Zrotation Yrotation Xrotation
		JOINT LeftLeg
		{
			OFFSET 43.500008 -0.000027 -0.000004
			CHANNELS 3 Zrotation Yrotation Xrotation
			JOINT LeftFoot
			{
				OFFSET 42.372200 0.000011 -0.000002
				CHANNELS 3 Zrotation Yrotation Xrotation
				JOINT LeftToe
				{
					OFFSET 17.299999 -0.000001 -0.000002
					CHANNELS 3 Zrotation Yrotation Xrotation
					End Site
					{
						OFFSET 0.000000 0.000000 0.000000
					}
				}
			}
		}
	}
	JOINT RightUpLeg
	{
		OFFSET 0.103458 1.857828 -10.548501
		CHANNELS 3 Zrotation Yrotation Xrotation
		JOINT RightLeg
		{
			OFFSET 43.500038 -0.000031 0.000011
			CHANNELS 3 Zrotation Yrotation Xrotation
			JOINT RightFoot
			{
				OFFSET 42.372257 -0.000004 0.000010
				CHANNELS 3 Zrotation Yrotation Xrotation
				JOINT RightToe
				{
					OFFSET 17.299994 -0.000005 0.000004
					CHANNELS 3 Zrotation Yrotation Xrotation
					End Site
					{
						OFFSET 0.000000 0.000000 0.000000
					}
				}
			}
		}
	}
	JOINT Spine
	{
		OFFSET 6.901966 -2.603733 0.000000
		CHANNELS 3 Zrotation Yrotation Xrotation
		JOINT Spine1
		{
			OFFSET 12.588101 0.000002 0.000000
			CHANNELS 3 Zrotation Yrotation Xrotation
			JOINT Spine2
			{
				OFFSET 12.343201 0.000004 -0.000002
				CHANNELS 3 Zrotation Yrotation Xrotation
				JOINT Neck
				{
					OFFSET 25.832895 -0.000004 0.000002
					CHANNELS 3 Zrotation Yrotation Xrotation
					JOINT Head
					{
						OFFSET 11.766604 0.000011 0.000001
						CHANNELS 3 Zrotation Yrotation Xrotation
						End Site
						{
							OFFSET 0.000000 0.000000 0.000000
						}
					}
				}
				JOINT LeftShoulder
				{
					OFFSET 19.745903 -1.480368 6.000108
					CHANNELS 3 Zrotation Yrotation Xrotation
					JOINT LeftArm
					{
						OFFSET 11.284126 -0.000007 -0.000022
						CHANNELS 3 Zrotation Yrotation Xrotation
						JOINT LeftForeArm
						{
							OFFSET 33.000053 0.000001 0.000028
							CHANNELS 3 Zrotation Yrotation Xrotation
							JOINT LeftHand
							{
								OFFSET 25.200005 0.000019 0.000013
								CHANNELS 3 Zrotation Yrotation Xrotation
								End Site
								{
									OFFSET 0.000000 0.000000 0.000000
								}
							}
						}
					}
				}
				JOINT RightShoulder
				{
					OFFSET 19.746094 -1.480373 -6.000072
					CHANNELS 3 Zrotation Yrotation Xrotation
					JOINT RightArm
					{
						OFFSET 11.284138 -0.000017 -0.000010
						CHANNELS 3 Zrotation Yrotation Xrotation
						JOINT RightForeArm
						{
							OFFSET 33.000092 0.000013 0.000009
							CHANNELS 3 Zrotation Yrotation Xrotation
							JOINT RightHand
							{
								OFFSET 25.199776 0.000139 0.000415
								CHANNELS 3 Zrotation Yrotation Xrotation
								End Site
								{
									OFFSET 0.000000 0.000000 0.000000
								}
							}
						}
					}
				}
			}
		}
	}
}
MOTION
Frames: 17
Frame Time: 0.033333
-101.007500 89.720802 -174.780701 90.769526 1.589350 107.379904 155.883959 -8.720707 -175.654598 -42.273991 -0.861067 -5.616105 74.415184 2.351202 -5.863152 21.454550 0.003087 0.000001 178.591880 7.723096 -170.134712 -20.906074 5.248252 6.379408 83.436696 -3.463321 5.114099 21.454560 -0.003104 -0.000016 9.974478 1.123353 2.498031 9.982777 2.026896 5.084386 9.665830 2.057651 5.072114 3.491764 -5.699302 -2.749723 -14.131327 8.455302 -6.513605 -162.921213 -75.613671 -18.950394 18.181458 68.162132 31.133194 -23.923325 -15.196087 1.138167 11.379331 0.418430 44.432003 -173.207273 73.082997 8.374810 -37.892728 -47.873035 -3.252472 -46.450791 18.664453 -1.911125 5.099745 3.763111 -5.169779 
-100.022301 89.570427 -175.140701 90.293086 2.328945 107.893602 159.050599 -11.198596 -173.928868 -41.099598 -0.826497 -7.619593 74.746039 3.882618 -5.569259 21.454553 0.003082 0.000003 179.776671 7.817307 -169.689589 -19.867221 5.543198 6.373049 82.749784 -3.335774 5.602458 21.454560 -0.003114 -0.000018 9.877260 1.099043 2.328062 9.784623 1.997191 4.741380 9.467494 2.025894 4.729271 3.432941 -5.555169 -2.579947 -16.136713 8.422743 -6.485388 -161.400061 -75.507092 -20.507117 16.169988 67.879144 29.104119 -24.402681 -15.421795 1.159736 11.298023 -0.491823 39.430081 -170.742927 71.531178 10.901005 -34.785873 -49.104696 -6.293960 -46.159477 18.971955 -1.922496 5.037573 4.654558 -8.166302 
-98.980499 89.485863 -175.471497 89.911258 2.887464 108.513702 162.790210 -13.312395 -174.381136 -38.004334 0.073716 -9.471980 74.814791 5.336944 -5.053907 21.454548 0.003082 0.000002 -179.261293 7.816607 -170.546135 -18.856785 5.744645 7.213615 82.075801 -3.708084 6.495901 21.454557 -0.003110 -0.000017 9.711740 1.051626 2.072918 9.447679 1.930435 4.225298 9.130311 1.956034 4.213599 3.574212 -5.537551 -2.276913 -18.002497 8.454026 -6.340318 -161.366989 -75.433005 -20.541886 14.296323 67.523004 26.932742 -25.416710 -15.498573 1.180486 11.474500 -0.950311 33.875546 -168.130612 70.538895 13.591194 -32.579627 -50.676220 -8.132547 -43.202220 18.707142 -1.816645 4.294166 5.878172 -12.689726 
-97.719429 89.371567 -175.765701 89.602574 3.341977 109.381197 166.665331 -15.066409 -176.487211 -34.006617 0.932171 -10.657249 74.782088 6.141044 -5.124138 21.454558 0.003088 0.000002 -178.308153 8.051499 -171.156604 -17.989287 5.903048 8.025133 81.437213 -4.015681 7.571740 21.454560 -0.003106 -0.000018 9.527354 0.974556 1.732959 9.071004 1.810252 3.537330 8.753390 1.831706 3.526359 3.025136 -5.033655 -2.055647 -19.206448 8.234900 -6.083080 -160.373689 -75.708146 -21.553920 11.246406 67.295279 25.190274 -26.412389 -15.726647 1.211331 11.164284 -1.217553 29.822211 -166.508114 69.532658 15.268179 -30.380019 -51.949746 -9.968893 -38.708588 18.479446 -1.678300 4.680368 6.199726 -13.627060 
-96.191422 89.220367 -176.138504 89.360895 3.547270 110.718104 169.755076 -15.999300 -179.971332 -30.803518 1.849514 -10.249731 73.204048 5.461880 -6.221091 21.454551 0.003091 0.000001 -177.493653 8.617293 -171.133286 -17.290735 5.988413 8.710191 80.758477 -4.163752 8.918860 21.454560 -0.003110 -0.000014 9.290076 0.939872 1.344202 8.589746 1.777389 2.754691 8.271888 1.794109 2.743924 2.175586 -5.163926 -2.126954 -19.773063 8.430512 -6.340555 -160.761684 -75.744585 -21.156699 6.694218 66.781977 22.926556 -27.252641 -15.557899 1.214941 10.875333 -2.423264 27.469195 -165.079238 68.898072 16.747670 -27.689457 -52.817218 -10.289524 -33.728324 16.845033 -1.452300 5.923286 6.125651 -12.498847 
-94.433487 88.885178 -176.589798 89.044452 3.694448 112.462090 171.774176 -16.637489 177.056658 -28.641205 1.592174 -9.300849 74.326180 2.042607 -15.906590 21.454551 0.003087 0.000001 -176.978657 9.171602 -170.105329 -17.382142 5.543252 9.015536 80.482960 -3.974534 10.590613 21.454558 -0.003097 -0.000017 9.072364 0.956163 0.975323 8.149164 1.841281 2.015707 7.831101 1.853549 2.004557 0.992955 -5.662257 -2.357895 -19.810431 9.093205 -6.980360 -161.315982 -75.711226 -20.590608 -0.999675 65.873083 18.799059 -27.177270 -14.851635 1.168523 10.219539 -2.840059 27.684746 -164.264397 68.223201 17.595284 -24.384689 -52.882866 -11.064091 -28.598441 14.998481 -1.229215 7.784574 6.038275 -8.183385 
-92.660217 89.008057 -177.061905 89.868760 3.364321 114.732398 172.577133 -16.001916 174.536906 -26.717006 -0.142774 -7.525713 75.707060 0.878498 -16.151108 21.454551 0.003090 -0.000000 -175.647849 10.737595 -168.496846 -16.204255 5.082508 9.465469 79.614140 -3.905967 11.993266 21.454558 -0.003115 -0.000019 8.950606 0.746935 0.592491 7.896829 1.451695 1.234560 7.578698 1.459261 1.225782 -0.598893 -6.420675 -2.995565 -19.150392 10.082064 -8.171538 -162.050746 -76.001400 -19.836089 -11.307286 64.722975 14.337569 -26.956663 -14.319482 1.130712 10.122984 -2.872970 28.289716 -163.655881 67.444935 18.231875 -20.648828 -52.458974 -12.215873 -24.359202 13.436804 -1.058075 9.694510 5.248316 -4.605581 
-90.618584 88.968521 -177.797607 91.201303 3.052761 117.185501 171.891669 -14.559200 171.874033 -27.804517 -1.134187 -4.752937 77.028701 -0.104365 -13.066009 21.454553 0.003095 0.000000 -174.697401 12.869009 -166.597125 -16.485338 4.115989 9.809784 78.976835 -3.599229 13.998102 21.454562 -0.003112 -0.000016 8.997058 0.439184 0.355115 7.984249 0.852792 0.739654 7.666139 0.857380 0.734495 -1.892725 -7.648273 -4.021303 -18.559019 11.630223 -10.060269 -165.545604 -76.275188 -16.262983 -22.643272 62.572039 9.183070 -26.746036 -13.652791 1.084433 10.280273 -2.288447 31.345476 -163.943965 66.787065 17.939270 -15.701172 -51.760615 -14.792014 -21.898787 12.731959 -0.978026 10.861141 4.358501 -3.541645 
-88.441322 88.756973 -178.724899 92.751264 2.498378 119.624712 170.638944 -12.243494 172.406324 -29.942067 -2.432718 -3.582412 78.066364 -0.155605 -10.572291 21.454548 0.003092 -0.000002 -174.488152 15.603398 -165.144467 -18.312688 3.203269 10.279883 78.577672 -3.318275 16.234350 21.454555 -0.003114 -0.000019 9.107918 0.022415 0.259455 8.203045 0.026356 0.519844 7.884956 0.029633 0.519684 -2.697794 -9.010890 -5.356400 -17.998513 13.499593 -12.385510 -170.085302 -76.779905 -11.625996 -33.725582 59.549961 4.098431 -26.777217 -12.669889 1.021827 10.207262 -1.819757 35.767160 -163.712271 66.635312 18.181038 -9.692286 -52.008906 -19.573729 -21.830693 13.032619 -0.996324 10.986429 3.265879 -6.133862 
-86.429909 88.608063 -179.687195 93.731799 1.767310 121.354512 169.798858 -9.883893 173.424814 -30.992263 -3.380427 -3.316219 79.318420 0.278862 -8.611738 21.454555 0.003098 0.000001 -175.463066 17.843794 -163.315123 -21.073739 1.592235 10.346477 77.680848 -2.784365 17.935938 21.454555 -0.003119 -0.000019 9.142170 -0.338442 0.361261 8.269516 -0.701852 0.697473 7.951418 -0.697489 0.701696 -2.764689 -10.257513 -6.608215 -17.517717 15.080438 -14.438089 -175.436551 -77.778226 -6.173716 -43.001915 56.917015 1.324352 -27.945169 -13.010645 1.063876 9.980652 -0.613474 40.568107 -162.506702 67.110796 19.425910 -3.786935 -52.989478 -25.041326 -22.607062 13.242812 -1.020258 10.699340 2.675005 -9.638310 
-84.471352 88.690437 -180.604996 94.599855 1.072973 122.129697 170.215336 -6.661805 174.986769 -29.971959 -3.202741 -4.310363 80.377489 1.278455 -7.683597 21.454548 0.003085 -0.000001 -177.425133 20.073393 -163.715318 -24.625658 0.322423 10.987678 75.400548 -2.726746 18.540953 21.454555 -0.003117 -0.000019 9.194009 -0.655719 0.462300 8.370590 -1.343146 0.876052 8.052438 -1.337698 0.884154 -2.702565 -11.458116 -7.444773 -17.159793 15.929391 -15.781038 -178.883269 -77.898506 -2.663385 -49.604450 54.319682 -0.746042 -30.291199 -13.698024 1.151619 9.016079 -0.363988 44.867274 -161.683104 68.194815 20.265935 0.746496 -54.194788 -29.842131 -23.057672 13.525110 -1.044588 9.032596 1.484293 -12.401206 
-82.709633 88.768181 -181.340607 95.178338 1.030618 122.567704 170.811884 -4.171403 177.214025 -29.503706 -3.077199 -5.710006 80.942584 2.386562 -7.265062 21.454553 0.003095 0.000000 179.240078 21.036494 -165.118239 -30.345304 -2.094867 12.244272 71.902556 -3.646920 16.661246 21.454560 -0.003108 -0.000016 9.344556 -0.854487 0.481227 8.670446 -1.742624 0.897210 8.352231 -1.737042 0.907735 -2.543106 -12.708207 -7.943069 -17.149055 16.489371 -16.728422 178.753933 -77.121251 -0.241574 -53.464081 51.477930 -0.736662 -33.227999 -14.872008 1.287528 8.029162 -1.310254 46.295306 -161.022270 69.180561 20.936101 2.578974 -55.118930 -32.541989 -22.915660 13.446663 -1.037574 7.911652 -1.013091 -13.510627 
-81.264763 88.893990 -181.758698 95.317701 1.434001 122.410200 171.724575 -3.872001 178.485848 -29.117960 -4.901748 -6.437687 81.233639 3.219014 -6.063807 21.454553 0.003090 -0.000002 174.888729 20.407395 -169.137436 -37.073929 -3.579015 15.025496 69.407556 -7.387720 10.345077 21.454555 -0.003115 -0.000018 9.497419 -1.052044 0.511603 8.974786 -2.140607 0.940255 8.656489 -2.134757 0.953171 -2.033043 -13.362917 -8.263570 -17.612681 17.109762 -17.448140 178.041626 -77.043796 0.486401 -56.136263 49.445095 -1.081158 -36.068610 -15.866207 1.416071 6.332141 -3.221590 44.282152 -162.153008 69.460107 19.765078 2.768835 -55.822904 -32.856943 -22.737020 13.261347 -1.023242 7.869063 -3.447117 -13.036021 
-80.077782 89.061172 -182.037506 94.736787 1.737679 122.561406 172.037220 -4.760605 175.461686 -29.269891 -5.353546 -4.550222 81.484560 2.310986 -4.324584 21.454550 0.003083 -0.000003 170.535986 19.183701 -172.009271 -43.392912 -3.316059 15.678025 70.328074 -9.055768 6.733615 21.454555 -0.003111 -0.000016 9.486924 -1.136384 0.373901 8.956177 -2.298298 0.658892 8.637830 -2.294143 0.672777 -1.507333 -13.595439 -8.418035 -17.380813 17.696791 -17.769594 175.860063 -77.593995 2.698005 -57.048359 48.641496 -2.332605 -38.850990 -16.500653 1.525808 4.315309 -5.962159 40.527488 -163.351596 69.697839 18.525532 1.614821 -57.023637 -31.512669 -22.930132 13.335231 -1.030669 8.851267 -5.645768 -13.689979 
-78.949944 89.446358 -182.130493 93.939703 2.126212 123.405399 172.746713 -5.179591 175.034731 -28.191090 -5.568452 -3.933320 81.253815 2.101601 -3.317161 21.454548 0.003090 -0.000000 167.450229 18.162914 -171.607342 -47.916154 -2.520102 12.913668 73.092463 -7.325088 6.264085 21.454557 -0.003109 -0.000017 9.429499 -1.122765 0.065008 8.847422 -2.247229 0.044032 8.529057 -2.246781 0.057618 -1.260322 -13.086536 -8.486049 -16.424496 17.982013 -17.634947 172.701702 -78.067703 5.901867 -56.340270 48.235971 -3.191744 -42.223249 -16.692894 1.628445 3.987147 -7.423442 35.495950 -163.505795 69.754570 18.365716 -0.253378 -58.444611 -30.865055 -24.111570 14.042967 -1.093018 9.283445 -6.651532 -14.761045 
-77.822708 89.897858 -182.054596 93.290617 2.507663 124.330302 173.841278 -4.892104 174.644085 -26.512880 -4.588752 -3.475139 80.881188 1.772946 -3.204475 21.454551 0.003084 0.000001 165.066247 17.145602 -170.675021 -50.719690 -1.301120 9.976585 74.315272 -5.608882 5.152627 21.454557 -0.003114 -0.000020 9.385783 -1.144623 -0.269677 8.766608 -2.265544 -0.625366 8.448258 -2.269145 -0.611660 -1.517576 -12.387373 -8.696987 -15.047214 18.216693 -17.556276 169.163459 -78.375779 9.491878 -54.729042 47.854160 -3.591312 -45.433783 -16.372472 1.699801 3.812010 -8.054997 30.672979 -163.342717 69.672451 18.534917 -2.089259 -59.735960 -30.411694 -26.487779 14.773226 -1.177526 8.759099 -5.999219 -15.865891 
-76.706413 90.279984 -181.875198 92.726259 2.689222 124.073405 175.294128 -4.759708 173.696423 -24.476427 -4.150458 -3.232249 80.662990 1.557511 -3.336031 21.454555 0.003103 -0.000000 162.412473 15.636303 -171.428377 -52.143689 0.261626 7.889092 73.612029 -4.104420 5.238981 21.454558 -0.003118 -0.000017 9.273049 -1.286696 -0.400784 8.545286 -2.540321 -0.895629 8.226901 -2.545560 -0.880258 -1.729868 -11.828423 -8.823646 -13.865651 18.756434 -17.550374 167.192840 -78.738113 11.482310 -53.044482 47.707512 -3.392651 -47.435643 -15.998132 1.735730 3.228029 -8.076893 27.800680 -164.241830 69.583973 17.607487 -3.354708 -60.614787 -31.326953 -29.598898 15.517280 -1.281263 7.956212 -4.219106 -15.615850 
